# xmcd
#
# Track frame offsets: 
#        182
#        11317
#        27097
#        41857
#        57645
#        70382
#        83882
#        98215
#        114040
#        127285
#        141327
#        155642
#        168557
#        181607
#
# Disc length: 2642 seconds
#
# Revision: 2
# Processed by: cddbd v1.5.2PL0 Copyright (c) Steve Scherf et al.
# Submitted via: ExactAudioCopy v1.0b4
#
DISCID=bf0a500e
DTITLE=Carlos Galhardo - Carlos Galhardo (In memoriam)
DYEAR=2004
DGENRE=Blues
TTITLE0=Fascinação - Carlos Galhardo
TTITLE1=Maringá - Carlos Galhardo
TTITLE2=A Pequenina Cruz do Teu Rosário - Carlos Galhardo
TTITLE3=Saudades do Matão - Carlos Galhardo
TTITLE4=Pecado Original - Carlos Galhardo
TTITLE5=Teus Lábios de Ciclamen - Carlos Galhardo
TTITLE6=Bodas de Prata - Carlos Galhardo
TTITLE7=Salão Grenat - Carlos Galhardo
TTITLE8=Devolve - Carlos Galhardo
TTITLE9=Rosa de Maio - Carlos Galhardo
TTITLE10=Rapaziada do Braz - Carlos Galhardo
TTITLE11=Mãezinha Querida - Carlos Galhardo
TTITLE12=Velho Realejo - Carlos Galhardo
TTITLE13=Eu Sonhei Que Tu Estavas Tão Linda - Carlos Galhardo
EXTD=
EXTT0=
EXTT1=
EXTT2=
EXTT3=
EXTT4=
EXTT5=
EXTT6=
EXTT7=
EXTT8=
EXTT9=
EXTT10=
EXTT11=
EXTT12=
EXTT13=
PLAYORDER=
